<?xml version="1.0" standalone="no"?>
<!DOCTYPE svg PUBLIC "-//W3C//DTD SVG 20010904//EN"
 "http://www.w3.org/TR/2001/REC-SVG-20010904/DTD/svg10.dtd">
<svg version="1.0" xmlns="http://www.w3.org/2000/svg"
 width="283.000000pt" height="178.000000pt" viewBox="0 0 283.000000 178.000000"
 preserveAspectRatio="xMidYMid meet">

<g transform="translate(0.000000,178.000000) scale(0.100000,-0.100000)"
fill="#000000" stroke="none">
<path d="M1185 1368 c-118 -63 -150 -78 -171 -78 -28 0 -30 -7 -8 -31 15 -16
13 -19 -26 -39 l-41 -21 20 -32 c10 -18 24 -49 29 -69 l10 -38 -374 0 -374 0
0 -325 0 -325 215 0 215 0 0 -54 c0 -33 -5 -58 -12 -63 -7 -4 -133 -7 -280 -6
-154 1 -268 -3 -268 -8 0 -5 531 -9 1300 -9 715 0 1300 3 1300 8 0 4 -33 6
-72 5 l-73 -2 3 115 c2 64 1 127 -2 140 l-6 24 -165 0 -165 0 -6 -24 c-3 -13
-4 -76 -2 -139 l3 -115 -65 5 c-36 3 -66 7 -68 8 -2 2 -3 130 -2 285 0 199 -3
286 -11 296 -9 11 -68 14 -310 14 -178 0 -300 4 -304 10 -9 15 6 60 20 60 7 0
23 8 35 18 18 15 22 24 16 46 -4 16 -15 30 -24 33 -14 3 -17 18 -17 94 0 88
-1 92 -29 116 -21 18 -38 24 -63 21 -31 -2 -36 1 -48 28 -30 71 -105 93 -180
52z m220 -182 c8 -11 21 -55 30 -96 20 -87 29 -102 48 -75 10 12 16 14 21 7 4
-7 4 -16 1 -22 -3 -5 -1 -10 4 -10 15 0 14 33 -1 49 -11 11 -10 13 2 9 8 -3
16 -16 18 -31 4 -29 -25 -51 -52 -41 -13 5 -16 -2 -16 -34 l0 -40 -71 -4 c-60
-3 -73 -7 -88 -27 -10 -13 -23 -21 -30 -17 -6 4 -11 2 -11 -3 0 -6 7 -11 15
-11 11 0 15 -11 15 -40 0 -41 -9 -47 -44 -34 -14 5 -16 28 -16 150 0 163 10
148 -97 144 -55 -2 -62 1 -68 20 -4 12 -5 22 -3 24 1 1 30 11 63 23 33 12 97
37 143 56 88 37 115 37 137 3z m-185 -446 l0 -310 -162 0 -163 0 -67 72 c-38
40 -68 76 -68 80 0 4 11 8 25 8 16 0 25 6 25 16 0 21 22 12 36 -14 22 -43 24
-34 24 93 0 112 -2 126 -15 115 -19 -16 -45 3 -45 31 0 17 -8 19 -70 19 -62 0
-70 -2 -70 -19 0 -10 -11 -26 -24 -35 -23 -14 -25 -14 -29 2 -3 9 -5 -41 -6
-112 0 -71 1 -127 3 -125 2 2 5 9 6 14 2 14 31 45 42 45 4 0 7 -6 6 -12 -2 -8
9 -14 25 -16 28 -3 103 -74 140 -133 l19 -29 -296 0 -296 0 0 310 0 310 480 0
480 0 0 -310z m858 128 c17 -17 17 -519 0 -536 -17 -17 -739 -17 -756 0 -18
18 -17 534 1 541 6 3 176 6 378 6 271 1 368 -2 377 -11z m-1430 -129 c-29 -19
-34 4 -8 37 14 16 15 16 18 -6 2 -12 -2 -27 -10 -31z m202 10 c0 -17 -3 -18
-20 -9 -11 6 -20 20 -20 31 0 17 3 18 20 9 11 -6 20 -20 20 -31z m440 -54 c0
-30 -3 -55 -7 -55 -14 0 -53 79 -47 94 3 9 17 16 30 16 22 0 24 -4 24 -55z
m-640 -10 c-29 -34 -34 -2 -6 34 9 12 12 11 14 -3 2 -9 -2 -23 -8 -31z m188
33 c7 -7 12 -21 12 -32 0 -18 -1 -19 -20 -1 -20 18 -27 45 -12 45 4 0 13 -5
20 -12z m417 -59 c13 -24 14 -34 4 -45 -20 -25 -29 -15 -29 31 0 25 2 45 5 45
2 0 12 -14 20 -31z m-605 -24 c-7 -8 -16 -15 -20 -15 -13 0 -5 31 11 40 18 12
25 -6 9 -25z m184 29 c9 -3 16 -15 16 -25 0 -17 -3 -18 -20 -9 -11 6 -20 17
-20 25 0 17 2 17 24 9z m427 -253 c-47 -91 -95 -117 -164 -87 -18 7 -51 21
-73 31 -23 9 -54 25 -70 36 l-29 19 61 0 c60 0 61 -1 72 -32 l11 -33 -5 33
c-6 32 -5 32 35 32 32 0 41 -4 42 -17 1 -17 2 -17 6 0 3 12 15 17 44 17 l39 0
0 77 c0 70 2 79 28 106 l27 28 3 -75 c3 -67 0 -81 -27 -135z m1297 12 l-3
-128 -62 -3 -63 -3 0 31 c0 28 -3 31 -27 28 -22 -2 -29 -9 -31 -31 -3 -27 -5
-28 -60 -25 l-57 3 -3 128 -3 127 156 0 156 0 -3 -127z m-1265 -115 c-2 -5
-27 -8 -54 -8 l-50 0 35 34 c19 19 40 52 47 73 l13 38 7 -65 c4 -36 5 -68 2
-72z m-403 59 c37 -60 30 -77 -30 -77 -57 0 -70 15 -70 79 0 41 0 41 38 41 33
-1 40 -5 62 -43z m63 9 c29 -19 70 -41 90 -50 20 -8 37 -20 37 -25 0 -15 -12
-14 -38 5 -12 8 -22 11 -22 6 0 -6 -10 -7 -22 -4 -23 6 -23 6 2 13 21 6 18 7
-16 8 -44 1 -63 12 -89 54 -23 36 -7 34 58 -7z m1467 -61 c0 -18 -5 -25 -20
-25 -15 0 -20 7 -20 25 0 18 5 25 20 25 15 0 20 -7 20 -25z m-1426 -27 c5 -4
-8 -5 -30 -1 -46 7 -48 8 -40 22 7 10 49 -2 70 -21z m996 9 c58 -1 -69 -4
-282 -5 -214 -1 -388 1 -388 6 0 6 409 6 670 -1z"/>
<path d="M1307 1103 c-32 -23 -36 -29 -24 -41 13 -12 20 -11 51 10 34 22 44
47 21 55 -6 2 -27 -9 -48 -24z"/>
<path d="M1357 1043 c-4 -3 -7 -12 -7 -20 0 -15 26 -18 34 -4 7 11 -18 33 -27
24z"/>
<path d="M1291 1010 c0 -8 6 -26 14 -40 19 -34 18 -40 -4 -40 -11 0 -23 -4
-26 -10 -7 -11 0 -12 33 -4 12 4 22 14 22 23 -1 21 -39 91 -39 71z"/>
<path d="M1666 637 c-28 -20 -18 -69 16 -81 51 -18 89 42 50 77 -22 20 -42 21
-66 4z"/>
<path d="M2382 418 c4 -27 33 -36 42 -13 8 22 -1 35 -25 35 -15 0 -20 -6 -17
-22z"/>
</g>
</svg>
