<?xml version="1.0" standalone="no"?>
<!DOCTYPE svg PUBLIC "-//W3C//DTD SVG 20010904//EN"
 "http://www.w3.org/TR/2001/REC-SVG-20010904/DTD/svg10.dtd">
<svg version="1.0" xmlns="http://www.w3.org/2000/svg"
 width="259.000000pt" height="194.000000pt" viewBox="0 0 259.000000 194.000000"
 preserveAspectRatio="xMidYMid meet">

<g transform="translate(0.000000,194.000000) scale(0.100000,-0.100000)"
fill="#000000" stroke="none">
<path d="M2151 961 c-46 -267 -86 -489 -89 -492 -4 -3 -157 -62 -339 -130
-263 -98 -333 -128 -333 -141 0 -17 3 -17 48 1 26 10 177 67 335 126 159 60
297 115 306 124 14 13 35 116 96 476 42 253 79 472 82 486 3 17 0 28 -9 31
-11 5 -31 -93 -97 -481z"/>
<path d="M1141 1396 c-1 -4 -24 -141 -52 -303 -27 -162 -49 -297 -47 -298 2
-2 204 -58 448 -125 245 -66 466 -127 491 -134 l46 -14 41 241 c23 133 38 244
34 248 -4 3 -45 16 -92 28 -47 12 -170 45 -274 73 -142 38 -190 48 -196 38 -6
-9 -30 -6 -106 15 -154 41 -164 45 -157 61 3 8 -1 14 -11 14 -18 0 -82 54 -98
84 -6 11 -15 35 -19 51 -4 17 -7 26 -8 21z m149 -246 c41 -12 83 -23 93 -26
16 -5 25 -34 10 -34 -13 0 -186 49 -190 54 -4 4 5 26 10 26 1 0 36 -9 77 -20z
m8 -66 c23 -7 31 -34 10 -34 -30 0 -58 13 -58 26 0 15 12 17 48 8z m-54 -119
c-4 -8 -8 -15 -10 -15 -2 0 -4 7 -4 15 0 8 4 15 10 15 5 0 7 -7 4 -15z"/>
<path d="M530 1200 c-9 -6 -10 -10 -3 -10 6 0 15 5 18 10 8 12 4 12 -15 0z"/>
</g>
</svg>
