<?xml version="1.0" standalone="no"?>
<!DOCTYPE svg PUBLIC "-//W3C//DTD SVG 20010904//EN"
 "http://www.w3.org/TR/2001/REC-SVG-20010904/DTD/svg10.dtd">
<svg version="1.0" xmlns="http://www.w3.org/2000/svg"
 width="259.000000pt" height="194.000000pt" viewBox="0 0 259.000000 194.000000"
 preserveAspectRatio="xMidYMid meet">

<g transform="translate(0.000000,194.000000) scale(0.100000,-0.100000)"
fill="#000000" stroke="none">
<path d="M1105 1390 c-10 -11 -16 -22 -14 -24 2 -2 12 7 22 20 22 29 17 32 -8
4z"/>
<path d="M1428 1323 c7 -3 16 -2 19 1 4 3 -2 6 -13 5 -11 0 -14 -3 -6 -6z"/>
<path d="M990 1270 c-13 -24 -4 -66 16 -74 11 -4 14 6 14 44 0 52 -12 64 -30
30z"/>
<path d="M1490 1246 c0 -45 12 -61 24 -30 10 26 7 51 -9 64 -13 11 -15 6 -15
-34z"/>
<path d="M2181 1253 c-10 -26 -10 -27 4 -9 8 11 15 23 15 28 0 15 -7 8 -19
-19z"/>
<path d="M1070 1185 c0 -5 5 -17 10 -25 5 -8 10 -10 10 -5 0 6 -5 17 -10 25
-5 8 -10 11 -10 5z"/>
<path d="M1120 1095 c13 -14 26 -25 28 -25 3 0 -5 11 -18 25 -13 14 -26 25
-28 25 -3 0 5 -11 18 -25z"/>
<path d="M1745 1100 c-22 -4 -32 -8 -22 -9 9 0 17 -6 17 -12 0 -5 -4 -7 -10
-4 -12 7 -12 7 -14 -172 l-1 -143 167 0 167 0 3 33 3 32 75 5 c63 4 50 6 -75
10 l-150 6 148 2 147 2 0 90 0 90 -70 0 -70 0 0 40 0 40 -137 -1 c-76 -1 -156
-5 -178 -9z m65 -40 c0 -5 -4 -10 -10 -10 -5 0 -10 -4 -10 -10 0 -5 25 -10 56
-10 34 0 53 -4 49 -10 -3 -5 -19 -10 -36 -10 -16 0 -29 -4 -29 -10 0 -5 5 -10
10 -10 6 0 10 -4 10 -10 0 -5 -7 -10 -15 -10 -8 0 -15 -3 -15 -6 0 -13 30 -34
49 -34 12 0 21 -4 21 -10 0 -6 -29 -10 -67 -10 l-68 0 -1 80 -1 80 28 0 c16 0
29 -4 29 -10z m237 -97 c-20 -2 -52 -2 -70 0 -17 2 0 4 38 4 39 0 53 -2 32 -4z
m-19 -20 c-16 -2 -40 -2 -55 0 -16 2 -3 4 27 4 30 0 43 -2 28 -4z m-28 -23
c-12 -8 -11 -10 8 -10 12 0 22 -4 22 -10 0 -5 -15 -10 -34 -10 -19 0 -37 -6
-39 -12 -3 -7 -6 2 -6 20 -1 30 1 32 32 32 24 0 28 -3 17 -10z m-140 -60 c0
-5 -6 -10 -14 -10 -8 0 -16 -5 -18 -10 -2 -6 -21 -13 -43 -15 -32 -4 -35 -3
-15 4 24 9 24 9 3 10 -13 1 -23 7 -23 16 0 12 13 15 55 15 30 0 55 -4 55 -10z
m-75 -57 c-16 -3 -33 -10 -37 -16 -4 -6 -10 -8 -15 -4 -12 12 19 27 52 25 l30
-1 -30 -4z"/>
<path d="M1359 1083 c-13 -16 -12 -17 4 -4 16 13 21 21 13 21 -2 0 -10 -8 -17
-17z"/>
<path d="M1591 1058 c0 -24 3 -37 6 -30 3 7 21 12 46 11 40 -1 40 -2 12 -9
l-30 -8 30 -2 c26 -1 27 -3 10 -10 -19 -8 -19 -9 3 -9 20 -1 22 4 22 49 l0 50
-50 0 -50 0 1 -42z m89 22 c0 -5 -19 -10 -42 -10 -32 0 -39 3 -28 10 20 13 70
13 70 0z m-17 -27 c-13 -2 -33 -2 -45 0 -13 2 -3 4 22 4 25 0 35 -2 23 -4z"/>
<path d="M420 1046 l0 -46 63 2 62 2 -52 3 -53 4 0 35 0 35 78 -3 77 -3 1 -35
c1 -24 0 -27 -3 -9 -5 31 -25 39 -95 39 -45 0 -48 -2 -48 -25 0 -24 2 -25 64
-25 36 0 68 -4 71 -10 9 -15 35 -12 35 4 0 12 14 15 60 15 45 -1 60 -4 60 -15
0 -10 -11 -13 -40 -12 -22 1 -43 -2 -47 -5 -8 -9 240 -9 261 -1 9 3 16 10 16
15 0 14 -38 11 -43 -3 -3 -8 -6 -6 -6 5 -1 12 7 17 29 17 23 0 30 -4 30 -20 0
-11 7 -20 15 -20 11 0 15 11 15 43 l0 44 -67 1 c-38 1 -161 5 -275 8 l-208 7
0 -47z m449 -34 c0 -10 -3 -12 -6 -4 -2 6 -14 12 -26 11 -21 0 -21 -1 -2 -9
15 -6 6 -9 -32 -9 -40 -1 -53 3 -53 13 0 11 15 14 60 15 50 0 60 -3 59 -17z"/>
<path d="M768 1013 c7 -3 16 -2 19 1 4 3 -2 6 -13 5 -11 0 -14 -3 -6 -6z"/>
<path d="M1246 1028 c3 -5 10 -6 15 -3 13 9 11 12 -6 12 -8 0 -12 -4 -9 -9z"/>
<path d="M638 1013 c6 -2 18 -2 25 0 6 3 1 5 -13 5 -14 0 -19 -2 -12 -5z"/>
<path d="M708 1013 c7 -3 16 -2 19 1 4 3 -2 6 -13 5 -11 0 -14 -3 -6 -6z"/>
<path d="M1658 983 c6 -2 18 -2 25 0 6 3 1 5 -13 5 -14 0 -19 -2 -12 -5z"/>
<path d="M1668 963 c7 -3 16 -2 19 1 4 3 -2 6 -13 5 -11 0 -14 -3 -6 -6z"/>
<path d="M1668 943 c7 -3 16 -2 19 1 4 3 -2 6 -13 5 -11 0 -14 -3 -6 -6z"/>
<path d="M1653 923 c9 -2 23 -2 30 0 6 3 -1 5 -18 5 -16 0 -22 -2 -12 -5z"/>
<path d="M1613 903 c15 -2 39 -2 55 0 15 2 2 4 -28 4 -30 0 -43 -2 -27 -4z"/>
<path d="M1510 880 c6 -11 13 -20 16 -20 2 0 0 9 -6 20 -6 11 -13 20 -16 20
-2 0 0 -9 6 -20z"/>
<path d="M1613 883 c15 -2 39 -2 55 0 15 2 2 4 -28 4 -30 0 -43 -2 -27 -4z"/>
<path d="M1574 762 c-9 -15 -8 -18 7 -18 9 0 15 4 13 8 -3 4 15 8 40 8 25 0
46 5 46 10 0 6 -21 10 -48 10 -34 0 -50 -5 -58 -18z"/>
</g>
</svg>
